<?xml version="1.0" encoding="utf-8"?>
<!-- Generator: Adobe Illustrator 25.2.0, SVG Export Plug-In . SVG Version: 6.00 Build 0)  -->
<svg version="1.1" id="Layer_1" xmlns="http://www.w3.org/2000/svg" xmlns:xlink="http://www.w3.org/1999/xlink" x="0px" y="0px"
	 viewBox="0 0 900 827.3" style="enable-background:new 0 0 900 827.3;" xml:space="preserve">
<style type="text/css">
	.st0{fill:none;stroke:#CCDDE2;stroke-width:5.0465;stroke-miterlimit:10;}
	.st1{fill:#2E2E2E;}
	.st2{fill:#5178E1;}
	.st3{fill:none;stroke:#000000;stroke-width:5.0465;stroke-miterlimit:10;}
	.st4{fill:none;stroke:#000000;stroke-width:5.0465;stroke-linecap:round;stroke-linejoin:round;stroke-miterlimit:10;}
	.st5{fill:none;}
	.st6{fill:#FFFFFF;}
	.st7{opacity:0.46;}
	.st8{fill:#E5EDFF;}
	.st9{fill:none;stroke:#000000;stroke-width:3.1538;stroke-miterlimit:10;}
	.st10{fill:#1E1E1E;}
	.st11{fill:#FFF;}
</style>
<g>
	<path class="st0" d="M183.9,611.4c-8-7.3-15.4-14.7-22.2-22.1"/>
	<path class="st1" d="M850.5,395.2c0.1,5,0,10.1-0.2,15.2c-1.4,31.6-8.2,64.3-25.1,90.9c-3.1,4.9-6.5,9.6-10.3,14
		c-36-4.7-41.4-41.5-83-62.2c-49.9-24.9-131.5-16-131.5-16l40.2-37.1c-2.2-111.9-84.2-105-84.2-105l-4.2,10.2
		c3.2-9.2,6.4-17.9,9.6-25.9c0.1-0.2,0.1-0.3,0.2-0.4c38-94.4,77.4-106.1,108-119.7c7.1-1.7,14.6-2.6,22.3-2.7
		c78.3-0.4,124.3,79.3,144.4,143.5c5,16,12.7,50.2,13.7,88.7C850.4,390.9,850.5,393,850.5,395.2z"/>
	<path class="st2" d="M894.5,814c-6.1,8.4-16.1,12.9-26.4,12.9H749.2c-9.2,0-18.3-3.6-24.4-10.4c-0.1,0,0,0,0,0
		c-0.4-0.4-0.8-0.9-1.2-1.4c-3.8-4.7-6.1-10.3-6.7-16.1c-0.6-5.4,3.4-10.2,8.9-10c4.4,0.2,7.8,3.6,8.2,7.7c0,0.4,0.1,0.8,0.2,1.3
		c0.4,2.4,1.5,4.7,3.1,6.6c0.7,0.8,1.5,1.6,2.4,2.3c2.6,1.9,5.9,2.8,9.1,2.8h119.8c4.3,0,8.6-1.7,11.4-5c3.3-3.9,4.3-9,2.7-13.7
		l-53.5-159.1c-0.5-1.2-0.9-2.4-1.5-3.6c-6.4-13.4-20-22.1-35.1-21.9c-22.5,0.3-51.1,0.3-53.8,0.3c-59.9-0.2-87.2-0.2-102.2,0.2
		c1-3.7,2.9-7.1,5.4-9.9l0.1-0.1c3.6-4,8.7-6.2,14-6.6c22.2-1.8,44.2-5.1,65.6-10.9c37.7-10.2,73.7-27.7,98.7-55.9
		c11.7-13.2,21-28.8,27-47.1c4.5-13.8,7-28.1,8.2-42.5c0.4-4.6,0.6-9.2,0.7-13.8V420c0-1.1,0.1-2.1,0.1-3.2
		c0.1-6.6-0.1-13.2-0.9-19.7c6.4,0,12.8,2.7,17.4,7.2c0.4,1.1,0.7,2.2,0.9,3.3c0.2,1.1,0.3,2.2,0.3,3.3v129.3
		c0,18.6-7.6,35.4-19.8,47.5c-10.4,10.3-13.4,25.9-8.4,39.7l53.2,158.2C902.1,795.5,900.5,805.8,894.5,814z"/>
	<polygon class="st1" points="161.7,810.1 161.7,447.4 183.9,447.4 183.9,810.2 	"/>
	<path class="st3" d="M600.3,437c15.9-1.7,34.3-3.7,51.9-3.3"/>
	<path class="st3" d="M513.8,453c-28.1,7.1-55.5,17.3-78.9,34.4c-39.2,28.6-57.1,81.8-41.1,128c0,0.1,63,181.8,63,181.8h-16.6
		c-7.5,0-14.3,3.1-19.2,8c-4.9,4.9-7.4,13.1-7.4,20.6h149.2l-56.7-185.5c-0.9-3-1.4-6-1.4-9c0-16.3,13.2-30.5,30.6-30.5
		c32.3,0.9,62.3,2.1,95,0.7"/>
	<path class="st3" d="M850.7,411.9c0-0.1,0-0.1,0-0.2c-1.5-39-3.4-77.5-14.1-111.6c-20.1-64.2-66.1-143.9-144.4-143.5
		c-7.7,0-15.2,1-22.3,2.7c-51.6,12.3-87.5,65.2-108,119.7c-0.1,0.2-0.1,0.3-0.2,0.4c-2,5.2-3.8,10.5-5.4,15.7
		c-1.1,3.6-2.5,7-4.2,10.2l0,0l0,0c-12.8,25.6-40,41.4-69.2,38.7c-94.8-8.6-219.7-13.5-259.1,53.1"/>
	<path class="st3" d="M695.6,339.3c-13.8,16.7-28.3,32.7-43.4,48.3c-30.7,31.9-57.3,65.7-105,68c-38.1,1.8-74.3-12.8-110.3-22.9
		c-38.5-10.8-58-19.5-93.9-30.4c-10.3-3.1-21.1-4.8-31.9-5l-36.1,0.3"/>
	<path class="st3" d="M554.7,799.5c3.4-1.5,7-2.3,10.9-2.3h16.6c0,0-34.7-67.6-62.5-112.5"/>
	<polyline class="st3" points="577.5,601.6 693.7,827 562.3,827 538.4,827 	"/>
	<path class="st3" d="M894.5,814c-6.1,8.4-16.1,12.9-26.4,12.9H749.2c-9.9,0-19.5-4.1-25.6-11.8c-3.8-4.7-6.1-10.3-6.7-16.1
		c-0.6-5.4,3.4-10.2,8.9-10c4.4,0.2,7.8,3.6,8.2,7.7c0.2,2.8,1.3,5.6,3.3,7.9c2.8,3.4,7.2,5.1,11.5,5.1h119.8c4.3,0,8.6-1.7,11.4-5
		c3.3-3.9,4.3-9,2.7-13.7l-53.5-159.1c-5.6-15.4-20.3-25.7-36.7-25.5c-22.5,0.3-51.1,0.3-53.8,0.3c-66.7-0.2-93-0.2-106.9,0.3
		c-0.9,0-1.6-0.8-1.6-1.7c0-6.4,2.4-12.3,6.4-16.7l0.1-0.1c3.6-4,8.7-6.2,14-6.6c22.2-1.8,44.2-5.1,65.6-10.9
		c37.7-10.2,73.7-27.7,98.7-55.9c11.7-13.2,21-28.8,27-47.1c4.5-13.8,7-28.1,8.2-42.5c0.4-4.6,0.6-9.2,0.7-13.8v-0.2
		c0-1.1,0.1-2.1,0.1-3.2c0.1-6.6-0.1-13.2-0.9-19.7c10.9-0.1,21.9,7.9,23.8,18.9c0.2,1.1,0.3,2.2,0.3,3.3v129.3
		c0,18.6-7.6,35.4-19.8,47.5c-10.4,10.3-13.4,25.9-8.4,39.7l53.2,158.2C902.1,795.5,900.5,805.8,894.5,814z"/>
	<path class="st3" d="M323.7,447.4H14.2c-7.6,0-13.7-6.2-13.7-13.7l0,0c0-7.6,6.2-13.7,13.7-13.7h309.5c7.6,0,13.7,6.2,13.7,13.7
		l0,0C337.5,441.2,331.3,447.4,323.7,447.4z"/>
	<path class="st3" d="M236.1,827.2H110.9c-4.2,0-7.7-3.4-7.7-7.7l0,0c0-4.2,3.4-7.7,7.7-7.7h125.2c4.2,0,7.7,3.4,7.7,7.7l0,0
		C243.8,823.7,240.3,827.2,236.1,827.2z"/>
	<path class="st3" d="M144.4,407.6v1.4c0.2,9.5,9.1,10.9,16.8,10.9l148.9-0.1c6.5,0,11.9-5,11.9-11.1v-0.3
		c-0.1-6-5.4-10.9-11.8-10.9c0,0-83.3-0.3-147.8-0.5c-1.2,3.4-4.1,6-7.8,8.1C151.2,407.2,146.9,407.7,144.4,407.6z"/>
	<path class="st3" d="M62.5,273.9c0,1.5,0.4,3.1,1.3,4.5l69,115.9c1.7,2.8,4.7,4.7,8,5.3c2.7,0.5,5.6,0.3,8.2-0.9
		c4.2-1.9,6.7-5.7,6.6-9.5c0-0.5-0.1-1-0.2-1.4c-0.2-1-0.6-2.1-1.2-3l-69-115.9c-3-5.1-10.3-7.1-16.2-4.5
		C64.8,266.3,62.4,270.1,62.5,273.9z"/>
	<path class="st3" d="M249.1,397.6c0,0,8.3-7.9,27.5-20.5"/>
	<path class="st3" d="M336.3,276.6c-0.4,5.3-2.4,9.2-5.4,12c-7.7,7-21.8,6.2-31.6,1.4"/>
	<path class="st3" d="M279.1,273.5c-8.7-10.5-6.9-24.8-0.2-35.8c28-45.6,81.2-17.5,116.3,2.1c20.9,11.7,40.8,25.1,59.6,39.9
		c16.7,13,32.1,28.6,52.2,36.4c12,4.7,26.2,5.8,38.1,0.4"/>
	<path class="st3" d="M330.8,288.6c0,0,28.4,20.3,60.4,50.5"/>
	<g>
		<path class="st2" d="M588,43.3c5.1,4.6,12.8,4.9,19.3,4.3c8.2-0.8,16.4-2.7,24.4-4.4l4.9-0.3h0.1c3.9-0.1,7,3.3,7.1,7.2
			c0,6.8-0.3,19.2-3.1,31.4l9.4,5.1c1.2-3.4-0.2-8.3,2.7-8.6c1.8-3.4,4.6-5.7,8.9-3.1c8.4,5,11.7,19.7,3.6,26.4l5.2,9.7
			c3.7,7,11.9,10.4,19.5,8.1c-3.1-7-5.3-11.7-5.3-11.7c12.5,2.2,21.2-13.3,17.4-22.8c-2.6-6.5-2.5-11.6,1-17.9
			c0.2-0.4-2.1-1-1.9-1.4c0.1-4.6-1.2-9.6-3.4-12c-3.9-4.2-11.9-5-10.3-11.4c0.7-2.8,1-5.7,0.8-8.6c-0.7-7.4-5.2-14.8-11.3-18.9
			c-6.6-4.3-13.9-0.4-20.9-0.5c-8.5-0.1-14.6-7.3-23.5-7.4c-4.4-0.1-8,1.7-11.8,3.8c-3.2,1.8-6.3,3.7-9.4,5.8
			c-2.9,2-5.7,3.9-9.4,3.9c-4.7,0.1-9.3-2.9-14.1-1.5c-2.6,0.7-4.5,2.2-6,4.1C580.4,29.6,583.1,38.8,588,43.3z"/>
		<path class="st4" d="M650,85.4c0.6-2.3,1.4-5.2,2.7-7.5c1.8-3.4,4.6-5.7,8.9-3.1c8.4,5,11.7,19.7,3.6,26.4l5.2,9.7
			c3.7,7,11.9,10.4,19.5,8.1"/>
		<path class="st4" d="M684.6,107.3c0,0,2.1,4.8,5.3,11.8c1.3,2.8,5.1,11.5,9.1,20.4c2.8,6.4,5.8,13.1,7.9,17.9"/>
		<path class="st3" d="M598.9,65.1c0,0,15.6-3.9,22.4,7.9"/>
		<path class="st3" d="M603.5,100.4c-4.2,1.1-9.9,2.2-13.1-1.5l7.1-14.9c1.7-3.6,2.1-7.8,1.2-11.7c-1.5-6.6-5.4-16.6-1.3-25.3"/>
		<ellipse transform="matrix(0.5162 -0.8565 0.8565 0.5162 228.3043 559.9412)" cx="609.8" cy="77.9" rx="4.1" ry="4.9"/>
		<line class="st3" x1="636.7" y1="174" x2="633" y2="132.9"/>
		<path class="st4" d="M649.9,86.5c0-0.4,0-0.7,0-1.1s0.1-0.8,0-1.2"/>
		<polyline class="st4" points="649.9,86.5 646.7,84.8 640.6,81.4 		"/>
		<path class="st3" d="M624.2,101.4c0,0-0.3,10.4-12.2,14.7"/>
		<path class="st3" d="M684.6,107.3c12.5,2.2,21.2-13.3,17.4-22.8c-2.6-6.5-2.5-11.6,1-17.9c0.2-0.4,0.4-0.8,0.6-1.3
			c2.6-5.7,1.7-11.3-2.4-16.1c-3.8-4.6-9.6-6.2-7.9-12.8c0.7-2.9,1.1-5.9,0.8-8.8c-0.7-7.6-5.4-15.2-11.7-19.5
			c-6.7-4.5-14.3-0.4-21.6-0.5c-8.7-0.1-15.1-7.6-24.2-7.7c-4.6-0.1-8.3,1.7-12.2,3.9c-3.3,1.9-6.5,3.9-9.6,6c-3,2-6,4-9.7,4
			c-4.9,0-9.6-3-14.5-1.6c-5,1.5-7.8,5.4-8.7,10.1c-1.6,7.3,1.2,16.5,6.1,21c5.1,4.6,12.8,4.9,19.3,4.3c8.2-0.8,16.4-2.7,24.4-4.4
			l4.9-0.3h0.1c3.9-0.1,7,3.3,7.1,7.2c0,6.8-0.3,19.2-3.1,31.4"/>
		<path class="st4" d="M651.8,118.7c0,0-18.6,24.7-35.1,19.2s-17.4-36.1-17.4-36.1"/>
	</g>
	<polyline class="st3" points="161.7,810.1 161.7,447.4 183.9,447.4 183.9,810.2 	"/>
	<path class="st5" d="M190.2,234.3c0,0,0.1,0.1,0.4,0.3"/>
	<circle class="st2" cx="182.1" cy="200.6" r="35.8"/>
	<path class="st6" d="M168.1,209.8c-1.1-0.7-2-1.6-2.8-2.6c-2.8-3.6-2.7-8.6,0.5-11.9c2.1-2.2,5-3.1,7.8-2.7
		c-0.4-2.8,0.4-5.7,2.5-7.9c3.7-3.9,10.1-3.7,13.6,0.4c2.8,3.2,4.1,7.9,4.6,12c0.3,2.2,0.3,4.3,0.1,6.5c-0.1,1.1-0.5,7.4-1.5,7.8
		C186.2,213.9,174.7,214.5,168.1,209.8z"/>
	<path class="st5" d="M416.6,205c0,0-0.1,0-0.2,0.1"/>
	<circle class="st2" cx="434.8" cy="208.8" r="19.2"/>
	<path class="st6" d="M433.5,199.9c0.6-0.3,1.2-0.6,1.9-0.7c2.4-0.5,4.8,0.7,5.7,3c0.6,1.5,0.4,3.1-0.4,4.4c1.4,0.4,2.7,1.5,3.3,3
		c1,2.7-0.5,5.7-3.3,6.5c-2.2,0.6-4.8,0.2-6.9-0.5c-1.1-0.4-2.2-0.9-3.2-1.4c-0.5-0.3-3.5-1.9-3.4-2.5
		C427.4,207.7,429.8,202,433.5,199.9z"/>
	<path class="st2" d="M286,186.9c2.1,1.8,4.5,3.2,7.1,4.4c9.4,4,21,2.7,29.1-3.5c3.2-2.4,6-5.8,9.3-8.3c2.4-1.8,5-3,8-3.2
		c1-0.1,2-0.1,2.8-0.6c2.2-1.4-0.4-3.7-0.6-5.3c-0.4-2.6,0.4-5.2,1.8-7.4c5-7.5,6.3-17.3,3.5-25.8c-2.9-8.5-9.8-15.6-18.3-18.5
		s-18.3-1.7-25.9,3.2c-5.6,3.7-9.8,9.2-14,14.4c-3.7,4.6-7.6,9.2-10.4,14.4C271.9,163,275.6,178.3,286,186.9z"/>
	<g>
		<circle class="st6" cx="324.1" cy="139.6" r="6.4"/>
		<circle class="st6" cx="311.7" cy="154.8" r="6.4"/>
		<circle class="st6" cx="300.1" cy="169" r="6.4"/>
	</g>
	<g class="st7">
		<path class="st8" d="M485.5,109c-1,4.9-4.1,9.3-8.9,11.8l-53.5,28.4c-8.5,4.5-19,1.3-23.5-7.2L357,61.8c-4.5-8.5-1.3-19,7.2-23.5
			l53.5-28.4c8.1-4.3,19.2-1,23.5,7.2l42.6,80.2C485.9,101,486.3,105.1,485.5,109z"/>
	</g>
	<path class="st6" d="M469.6,102.9L417.5,83c-1.4-0.5-2.2-2-1.9-3.4L427.7,24c0.6-2.7,4.2-3.2,5.5-0.8l40.1,75.5
		C474.6,101.1,472.2,103.9,469.6,102.9z"/>
	<g>
		<g class="st7">
			<path class="st8" d="M547.5,164.8c2.1,1.5,3.6,4,3.7,6.8l2,31.8c0.3,5.1-3.5,9.4-8.6,9.7l-47.7,2.9c-5,0.3-9.4-3.5-9.7-8.6
				l-2-31.8c-0.3-4.8,3.7-9.4,8.6-9.7l47.7-3C543.8,162.9,545.9,163.6,547.5,164.8z"/>
		</g>
		<path class="st6" d="M541.2,171.1l-20.9,20.7c-0.6,0.5-1.4,0.6-2,0.1l-24-17.9c-1.2-0.9-0.6-2.7,0.8-2.8l44.9-2.8
			C541.4,168.3,542.2,170.1,541.2,171.1z"/>
	</g>
	<g>
		<g class="st7">
			<path class="st8" d="M223.5,339.5c-3.5,0.6-6.6,0.8-9.5,0.8c-30.4,0-29.4-28.2-29.4-28.2l25.2,5.4c-1.2-3.3-2.3-8.9,1.5-14.4
				c5.8-8.4,19.1-4.1,19.1-4.1l8.3-5.4l-1.8,10l11.1-1.9l-5.7,6.6c7.7,7.4,17.5,29.9-6.1,41.6s-33.9-2.3-33.9-2.3l11.7-7.5
				L223.5,339.5z"/>
			<line class="st5" x1="209.9" y1="317.6" x2="230.4" y2="322.3"/>
		</g>
		<circle class="st6" cx="223" cy="308.3" r="3.6"/>
	</g>
	<line class="st9" x1="221.5" y1="827" x2="637.7" y2="827"/>
	<path class="st1" d="M512.6,455.8c0,0,50,12.5,87.7-16.5c0,0,103.9-18.8,152.5,27.5c0,0,30.5,10.6,36.4,37.1c0,0,25,13.7,27.6,3.5
		c0,0-33.4,61.3-165.9,73.3c0,0-13.3-2.7-22.2,18.9h-96.5c0,0-25-0.9-29.5,36.1L559.6,823H416.2c0,0-7.2-30.1,43-24.8l-55-158.5
		c0,0-29.9-56.7-4.7-104.3C399.5,535.5,416.6,475.2,512.6,455.8z"/>
	<path class="st10" d="M575.5,603.9l115,220.4H564.8l-7-23.2c0,0,16.5-6.1,28.2-1.5l-64.8-114.9l-14.1-50.3c0,0-1.1-30.2,26.3-31.6
		C560.9,601.5,575.5,603.9,575.5,603.9z"/>
	<path class="st1" d="M556.4,295"/>
	<path class="st11" d="M559,294.9c0,0-2.4,9.2-8.7,18.8c0,0-8.9,13.5-19.7,20.2s-24.3,14.2-47.7,12.6c-23.3-1.6-27.8-2.2-27.8-2.2
		s-37.6-2.5-42.8-2.3c-5.2,0.2-19.2-1.2-54.6,0.7c0,0-25.8,1.6-42.3,4.9c0,0-26.3,4.9-36.4,9.9c0,0-19.7,7-32.2,17.6
		c0,0-12.6,9.8-18.4,19.7l20.1,0c0,0,4.4-4,10.8-8.7c0,0,13.8-10,16-11.2l2.7,4.2l-11,7.5l-10.6,8.1h30.1H312c0,0,14.6-0.2,32.7,5.4
		c0,0,31.2,9.7,39.5,13.1c0,0,42.7,14.5,49.7,15.9c0,0,57.6,18.8,81,21.8c0,0,24.8,5.2,47.1,0c0,0,14.8-1.5,33.7-13.9
		c0,0,17.5-11.2,32.4-27.9l12.4-12.8c0,0,0.3-15.3-4.8-35.5c0,0-5.6-21.2-14-32.5c0,0-11.2-17.6-29.6-25.8
		C592.1,302.6,576.6,294.6,559,294.9z"/>
	<path class="st11" d="M537.3,321.8c0,0-23.1,5.8-50.6-13.7c0,0-15.3-11.2-26.7-21c0,0-22.7-18.7-40.8-29.7c0,0-36.9-23.4-61.9-33.8
		c0,0-31.1-13.3-52.7-5.2c0,0-16.1,4.9-25.7,25.1c0,0-7.8,15.7,0.5,26l-0.2,4.1l-14,16.4l4.5,12.6l12.5,1.8l14.9-14.7l1.3-4.4
		c0,0,8.5,12.3,28.6,3.5c0,0,8.2-1.1,6.6-14.5h26l0,2.2l0,2.9l-21,0c0,0-0.5,4.8-3.9,9.1c0,0,45.4,35.2,57.5,48.5
		c0,0,33.9,0,49.1,1.8c0,0,29.8,2,37.2,2.5c0,0,24.7,4.9,46.6-9.4c0,0,8.8-6.1,9.1-6.8L537.3,321.8z"/>
	<path class="st3" d="M316.8,267.6L316.8,267.6l-30.3,33.6c-4.4,4.9-11.8,5.4-16.9,1.3l0,0c-5.7-4.6-6.1-13.3-0.8-18.4l5.5-5.4
		c0.2-0.3,0.5-0.6,0.7-0.8l4-4.4l34.3-37.4c8.5-9.3,21.2-13.8,33.5-11.6c0.2,0,0.4,0.1,0.5,0.1"/>
	<path class="st3" d="M359.5,276.6h-30.3c-7.2,0-13-5.8-13-13l0,0c0-7.2,5.8-13,13-13h43"/>
</g>
</svg>
