<?xml version="1.0" encoding="utf-8"?>
<!-- Generator: Adobe Illustrator 25.2.0, SVG Export Plug-In . SVG Version: 6.00 Build 0)  -->
<svg version="1.1" id="Layer_1" xmlns="http://www.w3.org/2000/svg" xmlns:xlink="http://www.w3.org/1999/xlink" x="0px" y="0px"
	 viewBox="0 0 900 627.3" style="enable-background:new 0 0 900 627.3;" xml:space="preserve">
<style type="text/css">
	.st0{fill:#11223F;}
	.st1{fill:#353642;}
	.st2{fill:none;stroke:#000000;stroke-width:5.4698;stroke-miterlimit:10;}
	.st3{fill:#FFFFFF;}
	.st4{fill:#5178E1;}
	.st5{opacity:0.54;fill:#FFFFFF;}
	.st6{fill:none;stroke:#000000;stroke-width:5.4698;stroke-linecap:square;stroke-linejoin:round;stroke-miterlimit:10;}
	.st7{fill:#D7E8F0;}
	.st8{fill:#628EEF;}
	.st9{fill:#486EC1;}
</style>
<g>
	<path class="st0" d="M777.8,396.3c-14.1-81.7-64.1-154.8-145.2-181c-21-6.8-42.3-11.7-63.6-15.2l0,0.1c-1.2,6.8-3.7,13.3-7.8,18.8
		c-8.5,11.6-20.1,21.1-33.6,26.1c-13.8,5.1-30.8,5.8-43.6-2.3c-7.7-4.8-15.2-13.3-16.5-22.5c-1.5-10.3,3.7-20.1,11.1-26.9
		c-62.7,0.5-121.7,10.8-169,22.6c1.7,6.9,3.9,13.5,6.8,20c4,8.9,9.7,17.3,16.7,24c8.8-8.7,16.5-18.4,22.9-29
		c12.3,3.8,21.7,15.6,22.6,28.5v0.3c2.5,23.4-20.1,41-38.9,51.8c-21.9,12.6-46.3,22-70.2,29.8c-9.9,3.2-22.7,6.1-33.1,2.6
		c0,0,0,0,0,0c-1.1-0.4-2.2-0.8-3.3-1.3c-10.4-5.1-17.4-15.8-22.8-25.6c-15.5-27.8-25.5-58-32.3-89c-47.3,6.1-52.8-26.1-55.6-33.9
		L81.7,307.5c-6,22.8,3.2,45.3,20.5,58.1c9,6.7,20.3,10.8,32.7,10.8h167.7l76.1,195.3l21.6,55.4h123.3c-10,0-15.5-2.4-19.4-6.4
		c-3.9-4-6.4-9.4-6.4-15.5c0-12,9.8-21.8,25.9-21.8h1.1c-1.2,0-2.4-0.1-3.6-0.2c0.8-0.1,1.5-0.2,2.2-0.4c-0.8,0-1.6-0.1-2.4-0.2
		c7-0.8,13.3-4,18.2-8.8c5.3-5.2,8.6-12.3,9.1-20.2c0-0.4,0-0.8,0-1.1V552c-0.3-15.5-12.1-28.2-27.2-30c0.8-0.1,1.6-0.1,2.4-0.1
		c-0.7-0.2-1.5-0.3-2.3-0.4c1.2-0.1,2.4-0.2,3.6-0.2l90.2,0.5l16.6,0.1h19.7c0.9,0,1.8,0,2.7,0.1l29.2,0.1l19.5,0.1
		c17,0.1,30.7,14,30.6,31c0,4.8-1.1,9.3-3.1,13.3c8.1-1.2,15.7-4.5,22.1-11c14.1-14.4,20.1-35.9,24.3-55
		C784.1,466.4,783.6,430.5,777.8,396.3z M549.9,398.6c-17,26.1-45.9,23.8-45.9,23.8s-2.4,2.3-7.9-7.6c-5.6-10-21.6-16.8-21.6-16.8
		c-1.3,10-3.9,25.2-30,5.5c-26.1-19.7-18.2-48.4-16-63.6c2.2-15.1,11.1-20.2,11.1-20.2l10.5-5.5c0,0-30.4-7.8-31.8-8.1
		c-1.5-0.3-28.5-22.9-1.1-28.9c27.5-6,70.2,17.8,78.5,22.5c8.2,4.7,56.6,45.6,56.6,45.6S567,372.5,549.9,398.6z"/>
	<path class="st1" d="M177.8,228.2c0,0,22.9-2.8,31.5-19.1l-7.5,41.9c0,0,91.1-31,107.8-35c0,0,5.4,34.7,26.8,44l22.1-28.1
		c0,0,27.7,7,20.1,44.8c-7.6,37.8-112.4,69.3-130.2,68.6s-36.9-11.7-56.5-70.5L177.8,228.2z"/>
	<path class="st2" d="M215.1,134.8c5.8,9.4,11.6,18.9,17.6,28.2c3.7,5.7,10.5,13.9,3.3,19.9c-2.3,1.9-5.2,2.8-8.1,3
		c-4.6,0.4-9.5-0.7-12.3-4.7l-14-23.2c-5.8-9.6-18-13.2-28-8.1h0"/>
	<path class="st2" d="M267.9,165.3c3.7,8.7,1.2,14.3-3.1,17.1c-7,4.6-16.4,2.4-21.3-4.3l-28.5-43.3"/>
	<path class="st2" d="M239.2,122.2c10.4,12.6,23.4,36,30.7,45.8s18.4,3.9,18.4,3.9c9.1-4.9,7.5-13,3.6-22.8
		c-9.8-24.2-23.7-40.3-39.3-50.8C204.2,65.6,154.7,89.7,140,146L81.7,307.5c-9.1,34.8,17.2,68.9,53.2,68.9h167.7l97.7,250.7"/>
	<path class="st2" d="M299,137.9c12-4.2,11.5-23.3-5.6-29.8c-18.8-7.1-52.2-17.2-60.6-19.8c-0.1,0-0.1-0.1-0.2-0.1
		c-0.6-0.2-1-0.3-1.3-0.4c-0.3-0.1-0.5-0.1-0.5-0.1"/>
	<path class="st2" d="M476.3,329.3c-10.5-12.6-39.2-19.8-58-23.2c-6.7-1.3-11.4-6.8-12-13.1c-0.2-2,0-4.2,0.7-6.4
		c2.3-6.5,8.8-10.5,15.6-9.8c32,3.2,65,13.3,89.4,35c0,0,118.3,90.3,132.5,99.1c0.1,0.1-0.1-0.1,0,0c5.8,3.5,11.3-0.6,7.3-6.2
		l-1.2-2.1c-7-12-15.3-23.1-24.6-33.3"/>
	<path class="st2" d="M478.5,193.4C329.7,194.6,201.8,251,201.8,251l12.8-71.6"/>
	<path class="st1" d="M709.6,583c0,0-16.2-3.7-20.5,9.3c-4.3,13-8.8,33.6,22.2,34.9s12.8-4.9,11-14.9
		C720.4,602.2,709.6,583,709.6,583z"/>
	<path class="st2" d="M462,345.8c0,0-17.5-13.3-33.2,0.2c-0.6,0.6-1.2,1.2-1.7,2"/>
	<path class="st3" d="M243.5,178.2c5,6.7,14.4,8.9,21.3,4.3c4.2-2.8,6.7-8.4,3.1-17c0.7,0.9,1.2,1.8,1.8,2.6
		c7.2,9.8,18.4,3.9,18.4,3.9c9.1-4.9,7.5-13,3.6-22.9c-4.3-10.6-9.4-19.7-15.2-27.5c4-3.8,8.9-7.6,13.9-5.9c5.5,1.8,7,8.7,7.6,14.4
		c0.3,2.7,0.6,5.3,0.9,7.9c1.5,13.1,2.9,26.1,4.4,39.2c1.5,13,2.9,26.2,6.1,38.9c1.7,6.9,3.9,13.5,6.8,20c4,8.9,9.7,17.3,16.7,24
		c8.8-8.7,16.5-18.4,22.9-29c12.3,3.8,21.7,15.6,22.6,28.5v0.3c2.5,23.4-20.1,41-38.9,51.8c-21.9,12.6-46.3,22-70.2,29.8
		c-9.9,3.2-22.7,6.1-33.1,2.6c0,0,0,0,0,0c-1.1-0.4-2.2-0.8-3.3-1.3c-10.4-5.1-17.4-15.8-22.8-25.6c-26-46.7-36.8-100.4-42.5-153.6
		c11.4-1.6,22.7-3.3,33.9-5.7c0,0,0,0.1,0.1,0.1l12.9,21.4l1.1,1.8c2.8,4,7.7,5.1,12.3,4.7c2.9-0.3,5.8-1.1,8.1-3
		c7.2-6,0.4-14.1-3.3-19.9"/>
	<path class="st4" d="M243.5,178.2c5,6.7,14.4,8.9,21.3,4.3c4.2-2.8,6.7-8.4,3.1-17c0.7,0.9,1.2,1.8,1.8,2.6
		c7.2,9.8,18.4,3.9,18.4,3.9c9.1-4.9,7.5-13,3.6-22.9c-4.3-10.6-9.4-19.7-15.2-27.5c4-3.8,8.9-7.6,13.9-5.9c5.5,1.8,7,8.7,7.6,14.4
		c0.3,2.7,0.6,5.3,0.9,7.9c1.5,13.1,2.9,26.1,4.4,39.2c1.5,13,2.9,26.2,6.1,38.9c1.7,6.9,3.9,13.5,6.8,20c4,8.9,9.7,17.3,16.7,24
		c8.8-8.7,16.5-18.4,22.9-29c12.3,3.8,21.7,15.6,22.6,28.5v0.3c2.5,23.4-20.1,41-38.9,51.8c-21.9,12.6-46.3,22-70.2,29.8
		c-9.9,3.2-22.7,6.1-33.1,2.6c0,0,0,0,0,0c-1.1-0.4-2.2-0.8-3.3-1.3c-10.4-5.1-17.4-15.8-22.8-25.6c-26-46.7-36.8-100.4-42.5-153.6
		c11.4-1.6,22.7-3.3,33.9-5.7c0,0,0,0.1,0.1,0.1l12.9,21.4l1.1,1.8c2.8,4,7.7,5.1,12.3,4.7c2.9-0.3,5.8-1.1,8.1-3
		c7.2-6,0.4-14.1-3.3-19.9"/>
	<path class="st4" d="M246.6,181.3c4.4,6,12,5.2,18.3,1.1c3.8-2.5,6.9-1.8,3.7-9.5c0.6,0.8,0.7-2.1,1.2-1.4c6.4,8.8,0.1-3.6,0.1-3.6
		c9,11.4,28.6,0.7,25-8.1c-3.8-9.5-7.8-23.5-12.9-30.5c4-3.8,3.2-3.2,8.3-0.2c2.8,1.7,4.4,4.8,4.8,8.1c0.4,3.8,0.8,7.5,1.2,11.2
		c1.3,11.7,2.6,23.3,3.9,35c1.3,11.6,2.6,23.4,5.4,34.7c1.5,6.1,3.5,12.1,6.1,17.8c3.6,7.9,15.1,21.1,21.4,27.1
		c7.8-7.7,17.2-22,22.9-31.5c11,3.4,10.5,13.9,11.3,25.4v0.3c2.2,20.9-17.9,36.6-34.8,46.3c-19.5,11.2-41.3,19.6-62.7,26.6
		c-8.8,2.9-20.3,5.4-29.6,2.3c0,0,0,0,0,0c-1-0.3-2-0.7-2.9-1.2c-9.3-4.6-15.5-14.1-20.3-22.8c-21.2-38.1-31.1-81.4-36.5-124.8
		c-0.8-6.8,3.8-13,10.6-14c6.1-1,12.2-2,18.2-3.3c0.1,0,0.1,0,0.2,0.1l11.5,19.1l0,0c2.5,3.5,2.9,0.8,7.1,0.4
		c2.6-0.2,7.7-0.7,9.7-2.4c6.4-5.3,2.8-7.6-0.5-12.7"/>
	<path class="st2" d="M459.9,365.1c0,0-33.2-10.9-33.7,7.4"/>
	<path class="st5" d="M162.6,552.1L97.5,385.2c-3.5-13.8,7-27.2,21.2-27.2h258.7c12,0,22.4,8.2,25.1,19.8l71.3,166.8
		c3.3,13.8-7.1,27-21.3,27H187.7C175.8,571.7,165.5,563.6,162.6,552.1z"/>
	<path class="st2" d="M470.7,393.2c0,0,5.4,4.9,3.3,12c-1.5,5.2-6.7,8.5-11.9,6.7c-16.4-5.7-31.2-15.3-34.8-31.7
		c-1.8-8.3-2-16.8-1.1-25.2c0.8-7.8,1.9-16.2,4.6-23.6c4-11.4,16.2-19.3,28.1-13.8"/>
	<path class="st4" d="M162.6,552.1L97.5,385.2c-3.5-13.8,7-27.2,21.2-27.2h258.7c12,0,22.4,8.2,25.1,19.8l71.3,166.8
		c3.3,13.8-7.1,27-21.3,27H187.7C175.8,571.7,165.5,563.6,162.6,552.1z"/>
	<path class="st6" d="M162.6,552.1L97.5,385.2c-3.5-13.8,7-27.2,21.2-27.2h258.7c12,0,22.4,8.2,25.1,19.8l71.3,166.8
		c3.3,13.8-7.1,27-21.3,27H187.7C175.8,571.7,165.5,563.6,162.6,552.1z"/>
	<path class="st4" d="M172.1,545.4l-60.1-153.9c-3.2-12.8,6.5-25.1,19.6-25.1h238.7c11,0,20.6,7.6,23.2,18.3l65.8,153.9
		c3.1,12.7-6.6,24.9-19.6,24.9H195.3C184.3,563.4,174.8,556,172.1,545.4z"/>
	<line class="st2" x1="682.9" y1="521.2" x2="728.7" y2="627.1"/>
	<line class="st2" x1="900" y1="627.1" x2="0" y2="627.1"/>
	<path class="st2" d="M474.4,149.2c-7.4,7.3-18.5,7.3-24.8,0.5"/>
	<g>
		<path class="st2" d="M276.6,121.5c4-3.8,8.9-7.6,13.9-5.9c5.5,1.8,7,8.7,7.6,14.4c1.8,15.7,3.5,31.4,5.3,47.1
			c2.2,20,4.6,40.5,12.9,58.9c4,8.9,9.7,17.3,16.7,24"/>
		<path class="st2" d="M378.5,259.8c0-0.1,0-0.2,0-0.3c-0.9-12.9-10.3-24.7-22.6-28.5c-6.4,10.6-14.1,20.3-22.9,29
			c-22.9,22.7-52.8,38.3-84.6,43.4c1.5,6.1,4.7,11.7,6.9,17.6c2.2,5.9,3.3,12.7,0.6,18.4c-3.4,7.3-13,6.3-19.7,4.7c0,0,0,0,0,0
			c-0.1,0-0.1,0-0.2,0"/>
		<path class="st2" d="M201.5,157.9c-11.2,2.4-22.5,4.2-33.9,5.7c5.7,53.2,16.4,106.8,42.5,153.6c5.4,9.8,12.4,20.5,22.8,25.6
			c1.1,0.5,2.2,0.9,3.3,1.3c0,0,0,0,0,0c10.4,3.4,23.3,0.6,33.1-2.6c24-7.8,48.4-17.2,70.2-29.8c18.9-10.8,41.4-28.4,38.9-51.8
			c-0.2-2.5-0.7-5-1.6-7.6"/>
	</g>
	<g>
		<path class="st4" d="M388.8,51.9C388.8,51.9,388.8,51.9,388.8,51.9c4.2,16.4,17.6,25.2,30.4,26.3c0.6-2.9,1.9-5.6,3.8-7.9
			c8-9.4,11.4,8.3,37-4.4c35.5-17.6,48.9-7.5,48.9-7.5c1.2,0.9,1,9,1.2,10.5c1,8.4,1.9,16.8,2.9,25.2c0.6,5.1,1.2,10.2,1.7,15.3
			c0.5-0.9,1-1.7,1.6-2.5c3.2-11.4,9-24.9,21.4-19.1c2.5,1.2,4.7,3.1,6.4,5.3c8.3,10.8,2,21.3-6.6,29.1c-1.9,2.3-4.5,4.4-7.2,6.4
			c1.4,2.9,7.2,14.6,7.2,14.6c0.6,1.2,20.9-21.8,22.4-24.3c2.2-6.1,3.5-12.6,3.6-19.1c0.3-26.8-10.6-58.1-32.3-73.4
			c-5.4-3.8-3.7-7.5-4-12.7c-0.1-1.3-1.6-1.7-2.5-0.7C517.8,20.8,501,20,501,20c-58.5-14.7-78.2,11.4-90,16
			c-5.6,2.2-10.9,1.5-15,0.3c-0.6,3.3-2.9,6-6.1,7l0.3,2.7C390.4,48.1,389.9,50.2,388.8,51.9z"/>
		<line class="st4" x1="413.3" y1="90.6" x2="413.3" y2="90.6"/>
	</g>
	<g>
		<path class="st2" d="M419.2,78.1L419.2,78.1c-12.8-1-26.2-9.9-30.4-26.2c0,0,0,0,0,0c-0.6-2.5-1.1-5.3-1.2-8.2l0.5-0.1
			c0.7-0.1,1.3-0.2,1.8-0.4c3.2-1,5.6-3.7,6.1-7c0.2-0.9,0.2-1.8,0.1-2.7l-1.5-13.2c0,0,10.6,7.9,22.3,3.3c11.8-4.6,31.5-30.6,90-16
			c0,0,13.2,0.8,20-7.1c0.8-1,2.4-0.5,2.5,0.7c0.4,5.2,2.3,8.9,7.7,12.7c21.7,15.4,32.7,46.6,32.3,73.4c-0.1,11.1-3.8,22.1-9.5,31.5
			c-1.5,2.5-21.8,25.4-22.4,24.3c0,0-5.8-11.7-7.2-14.6c-0.2-0.4-0.3-0.7-0.3-0.7c0.2-0.1,0.4-0.3,0.7-0.4c2.3-1.6,4.7-3.4,6.9-5.4
			c8.6-7.8,14.9-18.2,6.6-29.1c-1.7-2.2-3.9-4.1-6.4-5.3c-12.5-5.8-18.2,7.7-21.4,19.1c-0.7,2.4-1.1,4.7-1.1,6.7
			c-0.2-1.4-0.3-2.8-0.5-4.2c0,0,0,0,0,0c-0.6-5.1-1.1-10.2-1.7-15.3c-1-8.4-1.9-16.8-2.9-25.2c-0.2-1.4,0-9.6-1.2-10.5
			c0,0-13.5-10.1-48.9,7.5c-25.6,12.7-29-5-37,4.4C421,72.5,419.8,75.3,419.2,78.1c-0.2,0.9-0.3,1.9-0.4,2.8c0,0.1,0,0.2,0,0.4
			c-0.1,2.1-0.2,4.1-0.2,6.1c-0.2,19.5,1.9,39.8,9.6,58c9.3,21.9,33.9,43.6,59.5,33.3c8-3.2,15.2-8.4,21.7-13.9"/>
	</g>
	<ellipse transform="matrix(0.9483 -0.3174 0.3174 0.9483 -15.6177 144.2267)" cx="434.9" cy="120.1" rx="4.9" ry="5.9"/>
	<ellipse transform="matrix(0.9483 -0.3174 0.3174 0.9483 -13.2615 156.246)" cx="472.9" cy="118.8" rx="4.9" ry="5.9"/>
	<path class="st2" d="M460.2,131c0,0-12.7,7.2-13.4-0.3c-0.2-2.3-3.3-24.8-3.3-24.8s-10.2-10.8-25.9-2.8"/>
	<path class="st2" d="M457.4,99.6c0,0,20.5-10.2,34,4.5"/>
	<path class="st2" d="M476.1,181.3l2.4,12.1c-7.4,6.8-12.7,16.6-11.1,26.9c1.4,9.1,8.8,17.7,16.5,22.4c12.8,8,29.9,7.4,43.7,2.3
		c13.5-5,25.2-14.5,33.6-26.1c4-5.5,6.6-12.1,7.8-18.8l0-0.1"/>
	<line class="st2" x1="478.5" y1="193.4" x2="483.1" y2="215.2"/>
	<path class="st2" d="M543.3,137.9l6.9,46c1.4,9.3,9.4,16.1,18.8,16.1l0,0c21.3,3.5,42.6,8.5,63.6,15.2
		c81.2,26.2,131.1,99.3,145.2,181c5.9,34.2,6.3,70.1-1.1,104.1c-4.2,19.1-10.2,40.7-24.3,55c-18.3,18.7-46.3,11-67.9,2.6
		c-67-26.1-122.7-72.5-170.9-125.5c-25.7-28.4-59-51.2-59-51.2"/>
	<g>
		<path class="st7" d="M194.3,510.9c-7.5-0.1-14.1-6.1-15.8-14.6c-3.3-16.6-4.2-42.3,20.1-47.9c30.5-7,53.9,26.2,65.4,47.1
			c3.9,7-0.5,16.1-7.7,16L194.3,510.9z"/>
		
			<ellipse transform="matrix(0.8326 -0.5539 0.5539 0.8326 -198.7356 176.6417)" class="st7" cx="192.8" cy="417.1" rx="14.1" ry="20.7"/>
	</g>
	<path class="st3" d="M704.8,583.5c-0.5,0.1-1,0.1-1.5,0.3h-0.2l-71.1-0.4l-106.7-0.5c-0.4,0-0.8,0-1.2,0c-0.8,0-1.6-0.1-2.4-0.2
		c7-0.8,13.3-4,18.2-8.8c5.3-5.2,8.6-12.3,9.1-20.2c0-0.4,0-0.8,0-1.1V552c0-14.8-10.6-27.3-24.8-30.2c-0.7-0.2-1.5-0.3-2.3-0.4
		c1.2-0.1,2.4-0.2,3.6-0.2l90.2,0.5l16.6,0.1l22.4,0.1c15.7,1.4,28.1,14.7,28.1,30.7c0,1.5-0.1,2.9-0.3,4.3
		c-0.9,6.7-4.1,12.8-8.7,17.4c-5.6,5.6-13.3,9.1-21.8,9.1h54.2C703.1,583.4,703.9,583.4,704.8,583.5z"/>
	<path class="st7" d="M560.5,620.7c4,4,9.4,6.4,15.5,6.4h-52.3c-10,0-15.5-2.4-19.4-6.4c-3.9-4-6.4-9.4-6.4-15.5
		c0-12,9.8-21.8,25.9-21.8h52.3c-12,0-21.9,9.8-21.9,21.8C554.1,611.3,556.5,616.7,560.5,620.7z"/>
	<path class="st4" d="M733.5,553.1c0,4.8-1.1,9.3-3.1,13.3h0c-1.5,3.1-3.5,6-5.9,8.4c-4,4-9.1,6.8-14.7,8.1c-2.2,0.5-4.6,0.8-7,0.8
		c0.5-0.1,1-0.2,1.5-0.3c-0.8-0.1-1.7-0.1,1.4-0.1h-54.2c8.5,0,16.2-3.5,21.8-9.1c4.6-4.6,7.8-10.6,8.7-17.4
		c0.2-1.4,0.3-2.9,0.3-4.3c0-16-12.4-29.3-28.1-30.7l29.2,0.1l19.5,0.1C719.8,522.2,733.6,536.2,733.5,553.1z"/>
	<path class="st6" d="M733.5,553.1c0,8.5-3.5,16.2-9.1,21.7c-5.6,5.6-13.3,9-21.8,9l-177.9-0.9c-1.2,0-2.4-0.1-3.6-0.2
		c7-0.8,13.4-4,18.2-8.8c5.6-5.5,9.1-13.2,9.1-21.7c0.1-15.7-11.8-28.8-27-30.8c1.2-0.1,2.4-0.2,3.6-0.2l177.9,0.9
		C719.8,522.2,733.6,536.2,733.5,553.1z"/>
	<path class="st6" d="M682.1,552.6c0,8.5-3.5,16.2-9,21.7c-5.6,5.6-13.3,9.1-21.8,9.1H524.7c-1.2,0-2.4-0.1-3.6-0.2
		c7-0.8,13.4-4.1,18.2-8.9c5.6-5.6,9-13.3,9-21.7c0-15.7-11.9-28.8-27.2-30.6c1.2-0.1,2.4-0.2,3.6-0.2h126.6
		C668.3,521.8,682.1,535.6,682.1,552.6z"/>
	<g>
		<path class="st6" d="M497.8,605.3c0,6,2.5,11.5,6.4,15.4c4,4,9.4,6.4,19.4,6.4h181.9c-3.1,0-2.3-0.1-1.4-0.1
			c-5-0.6-9.5-2.9-12.9-6.3c-4-4-6.4-9.4-6.4-15.4c0-11.1,8.5-20.4,19.3-21.7c-0.8-0.1-1.7-0.1,1.4-0.1H523.6
			C507.6,583.4,497.8,593.2,497.8,605.3z"/>
		<path class="st6" d="M554.1,605.3c0,6,2.5,11.5,6.4,15.4c4,4,9.4,6.4,15.5,6.4h125.6c0.8,0,1.7-0.1,2.5-0.1
			c-5-0.6-9.5-2.9-12.9-6.3c-4-4-6.4-9.4-6.4-15.4c0-11.1,8.5-20.4,19.3-21.7c-0.8-0.1-1.7-0.1-2.5-0.1H575.9
			C563.9,583.4,554.1,593.2,554.1,605.3z"/>
	</g>
	<g>
		<path class="st8" d="M350.4,438.4h-56.1c-5.2,0-10-3.1-12.1-7.9c-0.3-0.8-0.5-1.5-0.5-2.3c0-3,2.5-5.8,5.8-5.8h59.7
			C344.3,427.1,345.8,433.7,350.4,438.4z"/>
		<path class="st9" d="M386.7,432.6c0,3-2.4,5.8-5.8,5.8h-30.5c-4.7-4.7-6.1-11.2-3.3-16h26.9c5.3,0,10,3.1,12.1,7.9
			C386.5,431,386.7,431.8,386.7,432.6z"/>
		<path class="st3" d="M372.7,438.4c-0.1,0.3-0.3,0.6-0.5,0.9c-4,5.5-12.7,6-19.4,1.1c-0.8-0.6-1.6-1.2-2.3-1.9
			c-4.7-4.7-6.1-11.2-3.3-16c0.1-0.3,0.3-0.6,0.5-0.9c4-5.5,12.7-6,19.4-1.1c0.8,0.6,1.6,1.3,2.3,2
			C374,427.1,375.4,433.6,372.7,438.4z"/>
		<path class="st9" d="M400.8,467.8c0,3-2.5,5.8-5.8,5.8h-58.9c2.8-4.8,1.4-11.3-3.2-16h55.3c5.3,0,10,3.1,12.1,7.9
			C400.6,466.3,400.8,467.1,400.8,467.8z"/>
		<path class="st8" d="M336.1,473.6h-27.7c-5.3,0-10-3.1-12.1-7.9c-0.3-0.8-0.5-1.6-0.5-2.3c0-3.1,2.4-5.8,5.8-5.8h31.3
			C337.6,462.3,339,468.8,336.1,473.6z"/>
		<path class="st3" d="M336.1,473.6c-0.1,0.3-0.3,0.6-0.5,0.9c-4,5.5-12.7,6-19.4,1.1c-0.8-0.6-1.6-1.3-2.3-2
			c-4.6-4.7-6.1-11.2-3.3-16c0.1-0.3,0.3-0.6,0.5-0.9c4-5.5,12.7-6,19.4-1.1c0.8,0.6,1.6,1.2,2.3,1.9
			C337.6,462.3,339,468.8,336.1,473.6z"/>
		<path class="st9" d="M355.7,508.6h-35.3c-5.2,0-10-3.1-12.1-7.9c-0.3-0.8-0.5-1.5-0.5-2.3c0-3.1,2.5-5.8,5.8-5.8h38.8
			C349.7,497.4,351.1,503.9,355.7,508.6z"/>
		<path class="st8" d="M412.9,502.8c0,3-2.4,5.7-5.8,5.7h-51.4c-4.6-4.7-6.1-11.2-3.3-16h47.8c5.3,0,10,3.1,12.1,7.9
			C412.7,501.3,412.9,502.1,412.9,502.8z"/>
		<path class="st3" d="M378,508.6c-0.1,0.3-0.3,0.6-0.5,0.9c-4,5.5-12.7,6-19.4,1.1c-0.8-0.6-1.6-1.3-2.3-2
			c-4.6-4.7-6.1-11.2-3.3-16c0.1-0.3,0.3-0.6,0.5-0.9c4-5.5,12.7-5.9,19.4-1.1c0.8,0.6,1.6,1.2,2.3,1.9
			C379.4,497.3,380.8,503.8,378,508.6z"/>
	</g>
	<path class="st1" d="M111.6,189.8l0.9,0.3l-0.3,1.3C111.8,190.3,111.6,189.8,111.6,189.8z"/>
	
		<ellipse transform="matrix(0.9595 -0.2817 0.2817 0.9595 -57.4237 82.9504)" class="st7" cx="259.7" cy="241.2" rx="24.8" ry="29.8"/>
</g>
</svg>
