<?xml version="1.0" encoding="utf-8"?>
<!-- Generator: Adobe Illustrator 25.2.0, SVG Export Plug-In . SVG Version: 6.00 Build 0)  -->
<svg version="1.1" id="Layer_2_1_" xmlns="http://www.w3.org/2000/svg" xmlns:xlink="http://www.w3.org/1999/xlink" x="0px" y="0px"
	 viewBox="0 0 886.6 710.8" style="enable-background:new 0 0 886.6 710.8;" xml:space="preserve">
<style type="text/css">
	.st0{fill:#D7E5FF;}
	.st1{fill:#5178E1;}
	.st2{fill:none;stroke:#000000;stroke-width:5.14;stroke-miterlimit:10;}
	.st3{fill:#FFFFFF;}
	.st4{fill:#628EEF;}
	.st5{fill:#486EC1;}
	.st6{opacity:0.72;}
	.st7{fill:#3FBDF1;}
	.st8{fill:#2E2E2E;}
	.st9{fill:#11223F;}
	.st10{fill:none;}
	.st11{fill:none;stroke:#000000;stroke-width:5.1403;stroke-miterlimit:10.0005;}
</style>
<g>
	<path class="st0" d="M597.4,573.6c0,0,46.4-14.1,97.3,4.2L763.9,683c0,0-17.5,21-56.8,22.2l-15.4,0.5h-22.9l-130,0.1l-235.1-0.1
		l-182,0.2l-47.2-47.4c0,0,8.2,5.2,39.1,0.3l198.1-30.1l165.8-29l60.5-11.5l35-7.4L597.4,573.6z"/>
	<path class="st3" d="M726.7,461.4c0,0-52.3-13.6-81,37.4L772.4,687l5.3,7.6c0,0,6.8,11,18.8,10.8h18.2l57.2,0.1
		c0,0,7.3,0.3,8.5-7.7c0,0,0.8-7.6-7.6-9.1h-37c0,0-14.1,0.2-23.3-11.9c0,0-3.2-3.2-6.3-12.4l-37.9-93.2L726.7,461.4z"/>
	<path class="st1" d="M183.5,10.3h380c46.6,0,84.4,37.8,84.4,84.4v357.8c0,46.6-37.8,84.4-84.4,84.4h-380
		c-46.6,0-84.4-37.8-84.4-84.4V94.7C99.1,48.1,136.9,10.3,183.5,10.3z"/>
	<path class="st2" d="M181.1,2.6h376.8c49.7,0,90,40.3,90,90v354.2c0,49.7-40.3,90-90,90H181.1c-49.7,0-90-40.3-90-90V92.6
		C91.1,42.9,131.4,2.6,181.1,2.6z"/>
	<path class="st1" d="M194.3,20.7h358.4c46.6,0,84.4,37.8,84.4,84.4v337c0,46.6-37.8,84.4-84.4,84.4H194.3
		c-46.6,0-84.4-37.8-84.4-84.4V105C109.9,58.4,147.7,20.7,194.3,20.7z"/>
	<path class="st3" d="M574.8,47.2H464.4c-15,0-27.2,13.1-27.2,29.2v294.9c0,16.2,12.2,29.3,27.2,29.3h110.4
		c15,0,27.2-13.1,27.2-29.3V76.4C602,60.3,589.8,47.2,574.8,47.2z M589.2,363.1c0,13.5-10.1,24.4-22.7,24.4h-93.8
		c-12.5,0-22.7-10.9-22.7-24.4V84.7c0-13.5,10.1-24.4,22.7-24.4h93.8c12.5,0,22.7,10.9,22.7,24.4V363.1z"/>
	<path class="st4" d="M326,419.4l-161.8-2.3c-3.6-0.1-6.5-3-6.5-6.7c0-0.6,0.1-1.2,0.3-1.8c0.9-2.8,3.5-4.7,6.4-4.7l161.8,2.4
		c-1.2,1.9-1.9,4-2,6.3C324.1,415,324.7,417.4,326,419.4z"/>
	<path class="st5" d="M365.2,415.2c-0.8,2.8-3.4,4.7-6.4,4.7l-11.7-0.2c2.5-4,2.6-9.1,0.2-13.1l11.7,0.2c3.6,0.1,6.5,3,6.5,6.7
		C365.5,414,365.4,414.6,365.2,415.2z"/>
	<path class="st5" d="M364.8,441.2c-0.8,2.8-3.4,4.7-6.4,4.7l-160.8-2.3c1.8-2.1,2.8-4.8,2.9-7.5c0.1-1.9-0.3-3.8-1.1-5.6l159.2,2.3
		c3.6,0.1,6.5,3,6.5,6.7C365.1,440.1,365,440.7,364.8,441.2z"/>
	<path class="st4" d="M178.3,443.3l-14.5-0.2c-3.6,0-6.5-3-6.5-6.6c0-0.6,0.1-1.2,0.3-1.8c0.8-2.8,3.4-4.7,6.4-4.7l12.9,0.2
		c-0.7,1.6-1.2,3.3-1.2,5C175.6,438.1,176.5,441,178.3,443.3z"/>
	<path class="st4" d="M314.5,471.6l-150.1-2.2c-3.6-0.1-6.5-3.1-6.5-6.7c0-0.6,0.1-1.2,0.3-1.7c0.8-2.8,3.4-4.7,6.4-4.7l149.9,2.2
		C312,462.5,312,467.6,314.5,471.6L314.5,471.6z"/>
	<path class="st5" d="M365.4,467.6c-0.8,2.8-3.5,4.7-6.4,4.7l-23.5-0.4l-21-0.3c-2.5-4-2.5-9.1,0-13.1l21.4,0.3l23.4,0.3
		c3.6,0.1,6.5,3,6.5,6.6C365.7,466.4,365.6,467,365.4,467.6z"/>
	<path class="st3" d="M347.1,419.7c-3.7,5.8-11.4,7.5-17.2,3.8c-3.7-2.4-5.9-6.5-5.7-11c0.2-6.9,6-12.2,12.8-12l0,0
		c6.9,0.2,12.2,6,12,12.8c0,0,0,0,0,0.1C349,415.7,348.3,417.9,347.1,419.7z"/>
	<g class="st6">
		<path class="st3" d="M342.4,412.1c-0.3,1.5-1,2.9-2,4c-0.5,0.6-1.1,1.1-1.6,1.5c-0.3,0.2-2,1.6-2.4,1.4c-2.2-1.1-5.1-4-5.4-6.8
			c-0.1-0.4-0.1-0.9,0-1.3c0.3-1.6,1.6-2.7,3.2-2.7c1,0,1.9,0.6,2.5,1.4c1.1-1.4,3.1-1.6,4.5-0.5C342.1,409.9,342.6,411,342.4,412.1
			L342.4,412.1z"/>
	</g>
	<path class="st3" d="M197.7,443.6c-4.4,5.3-12.2,6-17.5,1.6c-0.7-0.6-1.3-1.2-1.8-1.9c-1.8-2.3-2.8-5.2-2.6-8.1
		c0.1-1.7,0.5-3.4,1.2-5l0,0c2.2-4.4,6.7-7.2,11.6-7c4.7,0.1,9,3,10.9,7.3c0.8,1.7,1.2,3.6,1.1,5.6
		C200.5,438.8,199.5,441.5,197.7,443.6z"/>
	<g class="st6">
		<path class="st3" d="M193.9,434.7c-0.3,1.5-1,2.9-2,4c-0.5,0.6-1.1,1.1-1.7,1.5c-0.3,0.2-2,1.6-2.4,1.4c-2.3-1.1-5.1-4-5.4-6.8
			c-0.1-0.4-0.1-0.9,0-1.3c0.3-1.6,1.6-2.7,3.2-2.7c1,0,1.9,0.6,2.5,1.4c1.1-1.4,3.1-1.6,4.5-0.5
			C193.6,432.5,194.1,433.6,193.9,434.7L193.9,434.7z"/>
	</g>
	<path class="st3" d="M335.5,471.9c-3.8,5.7-11.5,7.3-17.3,3.5c-3.6-2.4-5.7-6.5-5.6-10.8c0.1-2.2,0.7-4.3,1.9-6.1
		c3.7-5.8,11.4-7.6,17.2-4c1.7,1.1,3.1,2.5,4.2,4.3c1.2,2,1.8,4.4,1.7,6.7C337.5,467.8,336.8,470,335.5,471.9z"/>
	<g class="st6">
		<path class="st3" d="M330.9,464.2c-0.3,1.5-1,2.9-2,4c-0.5,0.6-1.1,1.1-1.7,1.5c-0.3,0.2-2,1.6-2.4,1.4c-2.3-1.1-5.1-4-5.4-6.8
			c-0.1-0.4-0.1-0.9,0-1.3c0.3-1.7,1.9-2.9,3.6-2.6c0.9,0.1,1.6,0.6,2.1,1.4c1.1-1.4,3.2-1.6,4.5-0.5
			C330.6,462,331,463.1,330.9,464.2L330.9,464.2z"/>
	</g>
	<path class="st3" d="M156.5,78.2l0.3,38.4c0.1,13.9,11.2,25.2,25.1,25.6l38,0.7c13.5,0.2,24.5-10.6,24.7-24.1c0-0.2,0-0.4,0-0.7
		l-0.3-38.3c-0.1-13.9-11.2-25.2-25.1-25.7l-38-0.7c-13.5-0.2-24.5,10.6-24.7,24.1C156.5,77.7,156.5,78,156.5,78.2z"/>
	<path class="st1" d="M162.4,87.8l0.2,27.8c0.1,12.1,9.8,21.9,21.8,22.3l33,0.6c11.7,0.2,21.3-9.2,21.5-20.9c0-0.2,0-0.4,0-0.6v-1.9
		c-4.6-9.5-13.6-23.6-23.3-15.2c-13.9,12.2-20.2,2.9-28.3-9C180.5,80.8,170.2,73.5,162.4,87.8z"/>
	<ellipse transform="matrix(0.8329 -0.5534 0.5534 0.8329 -5.5536 134.0303)" class="st1" cx="219.2" cy="76.2" rx="9.1" ry="9.3"/>
	<path class="st3" d="M367.1,129.8c-15.9,0-28.7,12.8-28.7,28.7c0,8.7,3.9,16.8,10.6,22.3L283.6,298c-0.5-0.1-0.9-0.1-1.4-0.1
		c-1.2,0-2.4,0.2-3.5,0.5l-49-60.8c6-8.4,4.1-20.1-4.3-26.1c-8.4-6-20.1-4.1-26.1,4.3c-6,8.4-4.1,20.1,4.3,26.1
		c0.1,0.1,0.2,0.1,0.2,0.2l-34.3,97.6c-7.2,0.4-12.6,6.6-12.2,13.7c0.4,7.2,6.6,12.6,13.7,12.2s12.6-6.6,12.2-13.7
		c-0.2-3.4-1.7-6.6-4.3-8.9l34.3-97.6c0.4,0,0.8,0.1,1.3,0.1c2.6,0,5.1-0.5,7.4-1.5l48.9,60.8c-3.4,6.2-1.1,14,5.2,17.4
		c1.9,1,4,1.6,6.2,1.6c7.1,0,12.9-5.7,12.9-12.8c0-2.9-1-5.8-2.8-8.1l65.3-117.2c15,5.2,31.3-2.8,36.5-17.7s-2.8-31.3-17.7-36.5
		C373.5,130.4,370.3,129.8,367.1,129.8L367.1,129.8z"/>
	<path class="st3" d="M810.5,458.2c-0.1-0.3-0.1-0.6-0.2-0.9c-3.2-11.6-9.9-21.9-19.1-29.6c-0.1-0.1-0.2-0.2-0.3-0.2
		c-0.8-0.6-1.7-1.2-2.6-1.8c-1.2-0.8-2.4-1.5-3.7-2.2c-0.1-0.1-0.2-0.1-0.3-0.2c-4.8-2.2-9.3-4.9-13.5-8l-0.2-0.1
		c-5.7-3.8-10.9-8.2-14.5-14.3c-0.1-0.1-0.1-0.3-0.2-0.4c-0.1,0-0.1-0.1-0.1-0.1c-3.3-5-5.3-10.5-4.9-16.2V384c-1-9.3,0-19-0.4-28.5
		c0-0.6,0-1.2-0.1-1.8s-0.1-1.3-0.1-1.9c0-0.2,0-0.4,0-0.6c-0.1-1.9-0.4-3.7-0.7-5.5c-3.3-17.6-14.6-33.3-28.4-44.4
		c-0.3-0.3-0.6-0.5-1-0.7c-15.5-11.4-32.5-15.8-43.6-17.5c-0.1,0-0.2,0-0.3,0c-4.2-0.3-8.2-0.2-11.8-1.1c-0.1,0-0.1,0-0.2,0
		c-4.1-0.8-7.8-3.1-10.3-6.4c-0.9-1.2-1.8-2.5-2.5-3.9c-0.1-0.1-0.2-0.2-0.2-0.3c-2.9-4.5-4.8-9.5-5.6-14.8c-0.1-0.5-0.2-1-0.3-1.5
		c-2.4-11.4-2.5-23.8-2.5-34c-0.9-15.8-8-36.1-20.2-50.6c0,0,0-0.1-0.1-0.1c-3.5-3.5-7.5-6.6-11.8-9.1c-10.9-6.1-23.5-8.7-36-7.5
		c0,0,0,0-0.1,0c0,0,0,0-0.1,0c-7.7,0.6-15.1,3-21.8,6.9c-2.5,1.4-4.8,3-6.9,4.9c-13,11.2-20.5,28.6-22.5,45.8
		c-0.2,1.3-0.3,2.6-0.3,4c0,0.2,0,0.3,0,0.5l0,0c-1.6,2.2-2.6,4.8-2.8,7.6c-0.4,6.2,3.1,12,8.7,14.7v0.3c0,0.9,0,1.8,0,2.7
		c0.2,6.1,1.5,12.1,3.9,17.7c4,9.4,11.1,20.2,23.2,21.9c2.1,0.3,4.3,0.5,6.5,0.6l5.7,24.5l4.9,21.2c21.4-12.2,47.8-15.8,70.4-8.7
		h0.1c10.6,3.2,20.2,9,27.9,16.8c25.1,20.5,53.3,117.8,55,123.8c0,0.1,0,0.1,0.1,0.2c0,0,0,0,0,0.1s0,0.1,0.1,0.2
		c0.1,0.3,0.2,0.6,0.3,0.8c0.1,0.3,0.2,0.6,0.3,0.9l0.7,1.8c5,12.9,21.1,55,24.7,65.4c4.3,12.3,7.6,13.2,7.6,13.2
		c0.2,0,0.4-0.1,0.5-0.2l0.7-0.3c10.8-4.4,20.9-10.5,29.7-18.1l0,0c0.1,0,0.1,0,0.1-0.1c8.2-8.3,14.2-18.6,17.3-29.9
		C812.1,481.7,812.7,469.7,810.5,458.2z"/>
	<path class="st1" d="M534.1,207.3c0,0,2.6-43.7,43.4-54s65.2,37.2,67,67.6s0,51.4,21.5,61c0,0,62-0.8,84.8,56.2
		c0,0,3.1,27.9,1.8,45.9s21.2,33.7,33.4,39.3s33.4,28.1,27.7,64.9s-51.5,53.2-51.5,53.2s-3.4-1-7.7-13.3S728.3,459,728.3,459
		s-29.2-103-55.1-124.1c-14.3-11.6-29.5-16.9-39.6-23c-10.6-6.5-15.7-13.6-19.3-18.1c-6.9-8.9-19.2-22.3-10.3-54s-0.1-15.7-8.4-20.2
		c0,0-10.3-16-25.9-4.7S558,198.8,558,198.8l-6.8,9.2C551.1,208,540.4,210.2,534.1,207.3z"/>
	<path class="st7" d="M432.2,266.9c0.4-0.6,1-1.3,1.5-1.9s1.1-1.3,1.6-1.9c1.8-1.9,3.7-3.7,5.8-5.3c0.6-0.5,1.3-1,2-1.5L432.2,266.9
		z"/>
	<path class="st1" d="M123.7,708.1h-32c-4.9,0-9.9,0-14.4-2s-8-5.6-11.3-9.1c-23.1-24.4-38.2-42.1-61.2-66.5l7.7-8
		c8.8-7.4,21.7-7,30,0.9l32.7,32.1l0,0L123.7,708.1z"/>
	<path class="st0" d="M575.1,578.6c-15.9,3.4-31.9,6.7-47.9,9.8c-18.9,3.7-37.8,7.3-56.8,10.8l-17.6-21.6l-29,30.1
		c-52,9.3-104.2,18.1-156.4,26.2l0.2-0.2l136.6-137.8c19-19.2,47.2-26.2,73-18l53.8,17.2C539.9,525.7,554.9,554.1,575.1,578.6z"/>
	<path class="st8" d="M535.2,388.4c-6.8,23.4-8.3,48.2-5.5,73.1c0.7,6.4,1.7,12.7,3,19c1.2,6.3,2.8,12.5,4.6,18.7
		c8.1,27.7,21,53.8,38.2,77c-0.7,0.1-1.3,0.3-1.9,0.4c-19.4-24.1-33.8-51.8-42.5-81.5c-1.7-6-3.2-12-4.4-18s-2.2-12.2-2.9-18.3
		c-2.7-24-1.1-47.9,5.4-70.4c4.8-16.6,13.4-31.8,25.1-44.5c2.9-3.2,6.1-6.1,9.5-8.8l0.2-0.1l0,0l0.5-0.4l0.2-0.2
		c3.2-2.4,6.6-4.7,10.1-6.6c7.7-4.4,16-7.6,24.6-9.7c-5.8,2-11.4,4.5-16.8,7.5c-3.7,2.1-7.2,4.4-10.5,6.9l-0.2,0.2l-0.5,0.4h-0.1
		l-0.2,0.1c-3.5,2.8-6.8,5.8-9.9,9.1C549.1,355.4,540.1,371.2,535.2,388.4z"/>
	<path class="st9" d="M644.3,501.4c0,0,27.8,35.3,51,77.6c-27.7-11.2-83.8-7-106.3-4.7c-3,0.1-6,0.5-8.9,1c-0.2,0-0.4,0-0.5,0.1
		c-0.1,0-0.1,0-0.2,0c-1.4,0.3-2.8,0.5-4,0.8c-17.2-23.2-30.1-49.3-38.2-77c-1.8-6.2-3.4-12.4-4.6-18.7s-2.3-12.7-3-19
		c-2.8-24.8-1.2-49.7,5.5-73.1c5-17.2,13.9-33,26.1-46.1c3-3.3,6.3-6.3,9.9-9.1l0.2-0.1h0.1l0.5-0.4l0.2-0.2
		c3.3-2.5,6.8-4.9,10.5-6.9c5.3-3,10.9-5.5,16.8-7.5c15.3-3.7,31.3-3.6,45.8,1h0.1c8.5,4.2,18.5,9.2,27.9,16.9
		c13.3,13.6,20.4,32,27.1,49.9c9.3,24.7,18.6,49.3,27.9,73.9c0,0.1,0,0.1,0.1,0.2c0,0,0,0,0,0.1s0,0.1,0.1,0.2
		c0.1,0.3,0.2,0.6,0.3,0.8c0.1,0.3,0.2,0.6,0.3,0.9C667.3,449,644.3,501.4,644.3,501.4z"/>
	<path class="st3" d="M563.7,335.1c-3.4,2.7-6.6,5.6-9.5,8.7c-11.7,12.6-20.4,27.9-25.1,44.5c-6.5,22.5-8,46.5-5.4,70.4
		c-0.8,0.4-1.6,0.8-2.4,1.2c-17.2,8.4-36.2,14.6-55.5,14.4c-21.4-0.2-41.7-9.8-55.5-26.2c-10.8-12.8-17.6-28.2-22.6-44
		c-5.3-16.7-9.4-33.4-15.9-49.6c-4.2-10.3-8.4-21.9-17.5-29.2c-4.7-3.7-10.5-5-15.1-8.7c-4.9-3.9-8.5-9.3-10.2-15.4
		c-0.8-2.6-1.2-5.3-1.4-8l0,0c-0.9-10.7,2-21.9,5.5-31.8l0,0L315,249.6c-4.9-3.3-7-10.4-4.1-15.5c1.7-3,4.5-5,7.9-5.7
		c3.1-0.6,6.3,0.1,8.8,2l37,26.6c0,0,2.9-9.2,11.6-6.4c8.2,2.7,37.2,14.1,36.2,49.3c-0.1,5.4,1.3,10.7,4.1,15.2l34.7,57.5
		c9.7,16.1,30.6,21.2,46.7,11.5c1-0.6,1.9-1.2,2.8-1.9l60.8-45.3L563.7,335.1z"/>
	<path class="st10" d="M364.7,256.8c0,0-5.8,14.1,14.1,23.4"/>
	<path class="st10" d="M329.7,272.2c0,0-2,17,20.6,23.4c8,2.2,14.5-7,9.6-13.7c-0.1-0.1-0.1-0.2-0.2-0.3"/>
	<path class="st10" d="M354.4,294.1c0,0,0.2,0.6,0.4,1.5c0.6,3,1,9.6-7.4,10.7c-11.7,1.5-19-11.3-19.9-13"/>
	<path class="st10" d="M327.4,293.3l-0.1-0.1"/>
	<line class="st10" x1="332.9" y1="261.5" x2="346" y2="270.4"/>
	<path class="st9" d="M575.1,351.2l-41,101.4l-10.5,4.9l-17.6,8.2c14.1-57.6-5.2-84.4-5.2-84.4l50.9-38c0.8,0.3,1.5,0.5,2.3,0.8
		C564.4,347.6,575.1,351.2,575.1,351.2z"/>
	<path class="st2" d="M596.6,572.9c-17.8,4.4-3.5,1.1-21.4,4.9"/>
	<path class="st2" d="M770.4,570.5c-1.9-5.1-3.8-10.1-5.7-15.2l-0.2-0.5c-21.3-56.7-42.7-113.3-64.1-169.9
		c-6.7-17.8-13.8-36.3-27.1-49.9c-27.8-28.4-76.8-25.7-108.5-1.5l-0.2,0.2l-0.2,0.1c-3.6,2.8-7,5.9-10.1,9.2
		c-11.7,12.7-20.4,27.9-25.1,44.5c-8.2,28.3-8.5,58.8-2.5,88.8c1.2,6.1,2.7,12,4.4,18c8.9,30.6,23.9,59,44.1,83.5
		c-15.9,3.4-31.9,6.7-47.9,9.8C441,604.3,354.4,619.5,267.5,633c-52.3,8.2-107.7,17-160.1,24l-20,2.5c-4.4,0.6-8.9-0.9-12.1-4l0,0
		l-32.7-32.2c-8.3-7.9-21.3-8.3-30.1-0.9l-7.7,8C27.9,654.8,43,672.6,66,697c3.4,3.6,6.8,7.2,11.3,9.1s9.6,2,14.4,2h28.6
		c24.2,0,48.5,0,72.7,0l490.9,0.1c20.1,0,40.9-0.1,59.3-8.2c8.9-3.9,16.9-9.6,23.5-16.8"/>
	<path class="st2" d="M604.7,442.5l171.1,254.1c4.8,7.2,12.9,11.5,21.6,11.5H872c6.1,0,11-4.9,11-11l0,0l0,0c0-6.1-4.9-11-11-11l0,0
		h-35.1c-11.6,0-22.1-7-26.4-17.8l-47.7-117.8"/>
	<path class="st2" d="M267.4,633.1l0.2-0.2l136.6-137.8c19-19.2,47.2-26.2,73-18l53.8,17.2"/>
	<line class="st2" x1="770.9" y1="570.7" x2="770.4" y2="570.5"/>
	<polyline class="st2" points="470.7,598.6 452.9,576.8 423.6,607.2 	"/>
	<line class="st2" x1="675.8" y1="338.2" x2="675.8" y2="338.2"/>
	<path class="st2" d="M794.1,688.4c4.5-0.2,9,0,13.5,0.4c3.7,0.4,7.5,0.6,10.9,2.3c2.9,1.4,5.9,4.8,5.7,9c-0.3,8.1-8.8,8.1-13.5,8.1
		"/>
	<polyline class="st2" points="795.9,708.2 810.7,708.2 810.9,708.2 856.2,708.2 	"/>
	<path class="st2" d="M523.7,457.9c0,0-0.1,0-0.1,0.1c-0.8,0.4-1.5,0.8-2.3,1.2c-5,2.5-10.1,4.7-15.3,6.6c-12.9,4.8-26.5,8-40.2,7.8
		c-21.4-0.2-41.7-9.8-55.5-26.2c-10.8-12.8-17.6-28.2-22.6-44c-5.3-16.7-9.4-33.4-15.9-49.6c-4.2-10.3-8.4-21.9-17.5-29.2
		c-4.7-3.7-10.5-5-15.1-8.7c-4.9-3.9-8.5-9.3-10.2-15.4c-0.7-2.6-1.2-5.3-1.4-8l0,0c-0.9-10.7,2-21.8,5.5-31.8l0,0L315,248.8
		c-4.9-3.3-7-10.4-4.1-15.5c1.7-3,4.5-5,7.9-5.7c3.1-0.6,6.3,0.1,8.8,2l37,26.6c0,0,2.9-9.2,11.6-6.4c8.1,2.7,37.2,14.1,36.2,49.3
		c-0.1,5.4,1.3,10.7,4.1,15.2l34.7,57.5c9.7,16.1,30.6,21.2,46.7,11.4c1-0.6,1.9-1.2,2.8-1.9l50.9-38l9.9-7.4l2.4-1.8l0,0l0.5-0.4
		l0.2-0.2"/>
	<path class="st2" d="M364.7,256c0,0-5.8,14.1,14.1,23.4"/>
	<path class="st2" d="M329.8,271.4c0,0-2,17,20.6,23.3c8,2.3,14.5-7,9.6-13.7l-0.2-0.3"/>
	<path class="st2" d="M327.4,292.4c0,0,7.5,14.8,20,13.1c11-1.5,7-12.2,7-12.2"/>
	<line class="st2" x1="333" y1="260.7" x2="346.1" y2="269.6"/>
	<path class="st2" d="M759.7,542.3c25.3-7.9,43.2-23.7,50.8-49.4c7.3-24.7,2.5-52.7-20.5-67.2c-11.5-7.1-25.1-12.7-32.2-24.9
		c-9.7-16.7-3.2-37.1-6.5-55.1c-3.5-18.8-16.1-35.4-31.2-46.5c-11.2-8.2-24.3-13.6-38-15.7c-10.2-1.5-19.4,1-26.3-8
		c-11-14.2-11.1-37.4-11.2-54.5c-0.1-13.1-3.2-26.2-9.9-37.5l-0.2-0.3c-5.4-9.1-12.9-16.7-22-22.1c-17-9.8-40.8-10.8-58-0.6
		c-2.4,1.5-4.8,3.1-6.9,5c-15.8,13.6-23.4,36.5-23.1,56.9"/>
	<path class="st2" d="M556.7,197.5c-0.9,6-4.5,11.6-11,13.2c-7.3,1.9-11.2,9-13.3,16.2c-2.9,10.5-2.2,21.7,2.2,31.8
		c4,9.4,11.2,20.2,23.2,22c22.1,3.2,33.1-6.2,33.1-6.2"/>
	<circle cx="575.2" cy="225.8" r="3.8"/>
	<circle cx="541.8" cy="223.3" r="3.8"/>
	<path class="st2" d="M556.7,197.5c-0.8,3.6-0.7,7.4,0.4,10.9c0.2,0.6,0.4,1.1,0.7,1.7c2.6,6.2,8.8,11.1,19.6,10.5
		c23.6-1.3,32.1-2.9,30.2,8c-0.8,3.8-1.9,7.6-3.4,11.2c-2.6,6.9-4.4,18.7-1.7,31.6v0.1c3.1,15.1,20.9,38.9,45.5,47.4"/>
	<path class="st2" d="M558.8,226.7c0,0-4,14.6-3.6,16.7s5.5,0.5,5.5,0.5"/>
	<path class="st2" d="M561.6,257.3c7.6,4.1,16.5,1.5,19.9-5.4"/>
	
		<ellipse transform="matrix(0.6865 -0.7272 0.7272 0.6865 15.8316 494.2332)" class="st11" cx="581" cy="228.8" rx="17.3" ry="17.7"/>
	
		<ellipse transform="matrix(0.6865 -0.7272 0.7272 0.6865 4.8935 460.7248)" class="st11" cx="536.7" cy="224.7" rx="17.3" ry="17.7"/>
	<path class="st3" d="M536.3,212.5c0.4,0,0.8,0,1.1,0c6.8,0.6,11.8,6.5,11.4,13.3c-0.4,6.2-5.5,11.1-11.8,11c-0.4,0-0.8,0-1.1-0.1
		c-6.7-0.6-11.8-6.5-11.4-13.3C524.9,217.3,530.1,212.5,536.3,212.5 M536.3,210c-7.6,0-13.9,5.8-14.3,13.4
		c-0.5,8.2,5.6,15.2,13.7,16c0.5,0,0.9,0.1,1.4,0.1c7.5,0,13.8-5.8,14.3-13.3c0.5-8.2-5.6-15.2-13.7-16
		C537.2,210,536.8,210,536.3,210L536.3,210z"/>
	<line class="st2" x1="563.5" y1="227.2" x2="554.2" y2="226.3"/>
	<path class="st3" d="M580.6,216.2c0.4,0,0.8,0,1.2,0.1c6.9,0.7,12.1,6.7,11.7,13.7c-0.4,6.4-5.7,11.4-12.1,11.3c-0.4,0-0.8,0-1.2,0
		c-6.9-0.7-12.1-6.7-11.7-13.7C568.8,221.2,574.2,216.2,580.6,216.2 M580.6,213.7c-7.8,0-14.2,6-14.7,13.7
		c-0.5,8.4,5.7,15.6,14,16.4c0.5,0,0.9,0.1,1.4,0.1c7.8,0,14.2-6,14.7-13.7c0.5-8.3-5.7-15.6-14-16.4
		C581.6,213.7,581.1,213.7,580.6,213.7L580.6,213.7z"/>
	
		<ellipse transform="matrix(0.6865 -0.7272 0.7272 0.6865 4.8935 460.7248)" class="st1" cx="536.7" cy="224.7" rx="14.8" ry="15.2"/>
	
		<ellipse transform="matrix(0.6865 -0.7272 0.7272 0.6865 15.8313 494.2436)" class="st1" cx="581.1" cy="228.8" rx="14.9" ry="15.3"/>
	<polyline class="st2" points="575.2,328.1 570,305.7 564.4,281.6 	"/>
</g>
</svg>
